<mxfile host="app.diagrams.net" modified="2024-04-27T09:59:14.796Z" agent="Mozilla/5.0 (Windows NT 10.0; Win64; x64) AppleWebKit/537.36 (KHTML, like Gecko) Chrome/124.0.0.0 Safari/537.36" etag="9_ytW0l5Gnw7dqYfQ4JW" version="24.3.0" type="device">
  <diagram name="StrÃ¡nka-1" id="1xk6o2MwFimywiSts_B-">
    <mxGraphModel dx="1034" dy="446" grid="1" gridSize="10" guides="1" tooltips="1" connect="1" arrows="1" fold="1" page="1" pageScale="1" pageWidth="850" pageHeight="1100" math="0" shadow="0">
      <root>
        <mxCell id="0" />
        <mxCell id="1" parent="0" />
        <mxCell id="xbZASN_CxZdcEYt_lAme-5" style="edgeStyle=orthogonalEdgeStyle;rounded=0;orthogonalLoop=1;jettySize=auto;html=1;entryX=0;entryY=0.5;entryDx=0;entryDy=0;" edge="1" parent="1" source="xbZASN_CxZdcEYt_lAme-1" target="xbZASN_CxZdcEYt_lAme-2">
          <mxGeometry relative="1" as="geometry" />
        </mxCell>
        <mxCell id="xbZASN_CxZdcEYt_lAme-1" value="Main menu" style="rounded=0;whiteSpace=wrap;html=1;" vertex="1" parent="1">
          <mxGeometry x="110" y="120" width="120" height="60" as="geometry" />
        </mxCell>
        <mxCell id="xbZASN_CxZdcEYt_lAme-6" style="edgeStyle=orthogonalEdgeStyle;rounded=0;orthogonalLoop=1;jettySize=auto;html=1;entryX=0;entryY=0.5;entryDx=0;entryDy=0;" edge="1" parent="1" source="xbZASN_CxZdcEYt_lAme-2" target="xbZASN_CxZdcEYt_lAme-3">
          <mxGeometry relative="1" as="geometry" />
        </mxCell>
        <mxCell id="xbZASN_CxZdcEYt_lAme-2" value="Story" style="rounded=0;whiteSpace=wrap;html=1;" vertex="1" parent="1">
          <mxGeometry x="270" y="120" width="120" height="60" as="geometry" />
        </mxCell>
        <mxCell id="xbZASN_CxZdcEYt_lAme-7" style="edgeStyle=orthogonalEdgeStyle;rounded=0;orthogonalLoop=1;jettySize=auto;html=1;entryX=0;entryY=0.5;entryDx=0;entryDy=0;" edge="1" parent="1" source="xbZASN_CxZdcEYt_lAme-3" target="xbZASN_CxZdcEYt_lAme-4">
          <mxGeometry relative="1" as="geometry" />
        </mxCell>
        <mxCell id="xbZASN_CxZdcEYt_lAme-3" value="Game" style="rounded=0;whiteSpace=wrap;html=1;" vertex="1" parent="1">
          <mxGeometry x="430" y="120" width="120" height="60" as="geometry" />
        </mxCell>
        <mxCell id="xbZASN_CxZdcEYt_lAme-8" style="edgeStyle=orthogonalEdgeStyle;rounded=0;orthogonalLoop=1;jettySize=auto;html=1;entryX=0.5;entryY=1;entryDx=0;entryDy=0;" edge="1" parent="1" source="xbZASN_CxZdcEYt_lAme-4" target="xbZASN_CxZdcEYt_lAme-1">
          <mxGeometry relative="1" as="geometry">
            <Array as="points">
              <mxPoint x="740" y="150" />
              <mxPoint x="740" y="200" />
              <mxPoint x="170" y="200" />
            </Array>
          </mxGeometry>
        </mxCell>
        <mxCell id="xbZASN_CxZdcEYt_lAme-4" value="End" style="rounded=0;whiteSpace=wrap;html=1;" vertex="1" parent="1">
          <mxGeometry x="590" y="120" width="120" height="60" as="geometry" />
        </mxCell>
      </root>
    </mxGraphModel>
  </diagram>
</mxfile>
